<?xml version="1.0" encoding="iso-8859-1"?>
<!-- Generator: Adobe Illustrator 19.0.0, SVG Export Plug-In . SVG Version: 6.00 Build 0)  -->
<svg version="1.1" id="Layer_1" xmlns="http://www.w3.org/2000/svg" xmlns:xlink="http://www.w3.org/1999/xlink" x="0px" y="0px"
	 viewBox="0 0 512 512" style="enable-background:new 0 0 512 512;" xml:space="preserve">
<g>
	<g>
		<polygon points="409.735,326.272 409.735,286.126 378.388,286.126 378.388,326.272 340.245,326.272 340.245,357.619 
			378.388,357.619 378.388,397.766 409.735,397.766 409.735,357.619 447.877,357.619 447.877,326.272 		"/>
	</g>
</g>
<g>
	<g>
		<path d="M471.249,252.781V52.114H0v322.824h280.822c0.077,0.265,0.147,0.538,0.226,0.802
			c7.115,23.825,22.005,45.245,41.925,60.317c20.605,15.589,45.188,23.829,71.088,23.829c65.032,0,117.94-52.907,117.94-117.939
			C512,307.28,497.241,275.217,471.249,252.781z M406.19,83.461L235.623,203.857L65.057,83.461H406.19z M439.902,98.035v135.189
			c-1.174-0.496-2.358-0.965-3.547-1.423c-0.284-0.11-0.571-0.217-0.856-0.325c-1.298-0.488-2.602-0.958-3.916-1.399
			c-0.107-0.036-0.214-0.068-0.321-0.103c-1.252-0.416-2.513-0.806-3.779-1.179c-0.261-0.077-0.521-0.157-0.784-0.231
			c-1.316-0.377-2.637-0.731-3.966-1.063c-0.26-0.065-0.522-0.125-0.784-0.189c-1.282-0.31-2.569-0.602-3.863-0.868
			c-0.117-0.024-0.233-0.051-0.35-0.075c-1.366-0.277-2.74-0.523-4.119-0.752c-0.297-0.049-0.595-0.098-0.891-0.145
			c-1.369-0.216-2.743-0.413-4.123-0.582c-0.191-0.023-0.383-0.042-0.575-0.064c-1.283-0.15-2.57-0.279-3.862-0.388
			c-0.242-0.02-0.483-0.044-0.725-0.063c-1.385-0.108-2.775-0.19-4.169-0.25c-0.298-0.013-0.596-0.022-0.893-0.033
			c-1.436-0.051-2.873-0.086-4.316-0.086c-11.636,0-23.043,1.682-34.035,4.996c-0.171,0.051-0.343,0.103-0.514,0.156
			c-1.37,0.42-2.733,0.862-4.09,1.333c-0.196,0.068-0.392,0.14-0.588,0.209c-1.369,0.483-2.732,0.984-4.086,1.519
			c-0.01,0.004-0.021,0.007-0.032,0.011c-0.001,0-0.001,0.001-0.002,0.001l-0.001,0.001c-1.156,0.458-2.303,0.94-3.446,1.437
			c-0.397,0.171-0.793,0.345-1.188,0.521c-0.777,0.347-1.551,0.704-2.322,1.069c-0.916,0.433-1.824,0.879-2.728,1.333
			c-0.309,0.157-0.621,0.311-0.929,0.47c-3.46,1.779-6.82,3.724-10.072,5.826l-47.677-33.648L439.902,98.035z M31.347,98.036
			l157.552,111.208L31.347,320.449V98.036z M281.535,306.521c-0.07,0.221-0.136,0.444-0.205,0.667
			c-0.333,1.087-0.652,2.179-0.954,3.277c-0.094,0.339-0.187,0.677-0.278,1.018c-0.275,1.034-0.534,2.073-0.781,3.117
			c-0.079,0.335-0.164,0.669-0.24,1.004c-0.307,1.353-0.598,2.71-0.859,4.077c-0.001,0.005-0.002,0.01-0.003,0.016
			c-0.254,1.334-0.481,2.676-0.689,4.023c-0.072,0.464-0.132,0.93-0.199,1.395c-0.128,0.9-0.251,1.799-0.358,2.703
			c-0.064,0.534-0.121,1.069-0.178,1.604c-0.091,0.862-0.172,1.725-0.245,2.591c-0.044,0.531-0.088,1.061-0.125,1.592
			c-0.065,0.93-0.115,1.863-0.158,2.797c-0.021,0.457-0.049,0.912-0.065,1.369c-0.048,1.389-0.078,2.779-0.078,4.176
			c0,0.548,0.004,1.096,0.011,1.645H52.919v-0.001L216.078,228.43l19.546,13.797l19.548-13.798l50.37,35.548
			C294.62,276.338,286.458,290.82,281.535,306.521z M394.061,428.538c-37.995,0-72.116-25.4-82.977-61.768
			c-0.966-3.234-1.76-6.648-2.357-10.147c-0.209-1.219-0.392-2.442-0.549-3.667c-0.47-3.674-0.708-7.362-0.708-11.01
			c0-1.025,0.023-2.047,0.057-3.066c0.014-0.379,0.036-0.756,0.053-1.135c0.029-0.624,0.063-1.247,0.106-1.867
			c0.033-0.485,0.073-0.969,0.114-1.451c0.041-0.482,0.087-0.962,0.136-1.442c0.06-0.576,0.12-1.15,0.19-1.724
			c0.038-0.308,0.081-0.615,0.122-0.924c3.349-25.027,17.436-47.395,39.112-61.31c3.459-2.221,7.068-4.187,10.768-5.882
			c0.149-0.068,0.296-0.139,0.445-0.206c1.205-0.543,2.418-1.061,3.639-1.544c0.01-0.004,0.02-0.008,0.03-0.013
			c1.181-0.467,2.371-0.901,3.567-1.313c0.433-0.149,0.869-0.282,1.304-0.424c0.758-0.248,1.516-0.492,2.28-0.719
			c0.551-0.163,1.104-0.313,1.658-0.466c0.647-0.178,1.294-0.351,1.945-0.513c0.618-0.154,1.236-0.301,1.857-0.441
			c0.588-0.133,1.179-0.258,1.77-0.378c0.664-0.136,1.328-0.269,1.996-0.389c0.547-0.098,1.098-0.184,1.648-0.273
			c0.703-0.112,1.405-0.227,2.112-0.322c0.502-0.068,1.005-0.118,1.508-0.177c1.619-0.189,3.244-0.336,4.879-0.435
			c0.295-0.018,0.588-0.047,0.883-0.062c0.318-0.016,0.613-0.023,0.922-0.036c1.162-0.046,2.325-0.08,3.494-0.08
			c2.371,0,4.727,0.094,7.065,0.281c16.362,1.308,31.8,7.162,45.012,17.126v0.001c21.934,16.541,34.513,41.757,34.513,69.183
			C480.653,389.693,441.809,428.538,394.061,428.538z"/>
	</g>
</g>
<g>
</g>
<g>
</g>
<g>
</g>
<g>
</g>
<g>
</g>
<g>
</g>
<g>
</g>
<g>
</g>
<g>
</g>
<g>
</g>
<g>
</g>
<g>
</g>
<g>
</g>
<g>
</g>
<g>
</g>
</svg>
